# xmcd
#
# Track frame offsets:
#	150
#	19760
#	35608
#	56901
#	76252
#	88213
#	104489
#	118404
#	134128
#	150307
#	165345
#	180558
#
# Disc length: 2565 seconds
#
# Revision: 1
# Processed by: cddbd v1.5.2PL0 Copyright (c) Steve Scherf et al.
# Submitted via: audiograbber 1.83.01
#
DISCID=9f0a030c
DTITLE=Kenny Rogers - 25 Best CD 2
DYEAR=2008
DGENRE=Country
TTITLE0=She Believes In Me
TTITLE1=Through The Years
TTITLE2=Always And Forever
TTITLE3=I Only Have Eyes For You
TTITLE4=Love Is A Many Splendored Thing
TTITLE5=The Wind Beneath My Wings
TTITLE6=You Send Me
TTITLE7=Unchained Melody
TTITLE8=Evergreen
TTITLE9=Misty
TTITLE10=I Can't Help Falling In Love
TTITLE11=Always
EXTD=
EXTT0=
EXTT1=
EXTT2=
EXTT3=
EXTT4=
EXTT5=
EXTT6=
EXTT7=
EXTT8=
EXTT9=
EXTT10=
EXTT11=
PLAYORDER=
